# xmcd CD Database Entry
#
# Track frame offsets:
# 183
# 19383
# 35935
# 55410
# 70948
# 86045
# 98085
# 116070
# 131345
# 148333
# 172040
# 190373
# 212428
# 241120
#
# Disc length: 3480 seconds
#
# Revision: 1
# Processed by: cddbd v1.4PL0 Copyright (c) Steve Scherf et al.
# Submitted via: tcd 2.0b
#
DISCID=d30d960e
DTITLE=Chanteuses (vol. 2)
DYEAR=1900
DGENRE=
TTITLE0=Ella Fitxgerald: I'm just a lucky so-and-so
TTITLE1=Rose Murphy: Sympathetic little star
TTITLE2=Blossom Dearie: The Surrey with the fringe on top
TTITLE3=Anita O'Day: Crazy, he calls me
TTITLE4=Sarah Vaughan: It shouldn't happen to a dream
TTITLE5=Dinah Washington: I'm a fool to want you
TTITLE6=Nina Simone: If I should lose you
TTITLE7=Shirley Horn: In the wee small hours of the morning
TTITLE8=Morgana King: Something to remember you by
TTITLE9=Helen Merrill: Born to be blue
TTITLE10=Sue Raney: Statue of snow
TTITLE11=Kitty White: Skylark
TTITLE12=Billie Holiday: Body and soul
TTITLE13=Abbey Lincoln: You and me, my love
EXTD=
EXTT0=
EXTT1=
EXTT2=
EXTT3=
EXTT4=
EXTT5=
EXTT6=
EXTT7=
EXTT8=
EXTT9=
EXTT10=
EXTT11=
EXTT12=
EXTT13=
PLAYORDER=
